
<svg width="381" height="533" viewBox="0 0 381 533" fill="none" xmlns="http://www.w3.org/2000/svg">
<rect width="895" height="533" rx="12" fill="url(#paint0_linear_2001_3)"/>
<ellipse cx="72.7601" cy="9.14015" rx="2.14677" ry="1.84009" transform="rotate(90 72.7601 9.14015)" fill="white" fill-opacity="0.86"/>
<circle cx="19.7043" cy="186.402" r="2.14677" transform="rotate(90 19.7043 186.402)" fill="white" fill-opacity="0.51"/>
<circle cx="-1.15006" cy="24.4743" r="2.14677" transform="rotate(90 -1.15006 24.4743)" fill="white" fill-opacity="0.86"/>
<circle cx="76.747" cy="107.892" r="2.14677" transform="rotate(90 76.747 107.892)" fill="white" fill-opacity="0.86"/>
<circle cx="62.0263" cy="245.898" r="2.14677" transform="rotate(90 62.0263 245.898)" fill="white" fill-opacity="0.51"/>
<circle cx="29.5181" cy="450.761" r="2.14677" transform="rotate(90 29.5181 450.761)" fill="white" fill-opacity="0.86"/>
<circle cx="23.6912" cy="243.751" r="1.84009" transform="rotate(90 23.6912 243.751)" fill="white" fill-opacity="0.51"/>
<ellipse cx="148.817" cy="417.026" rx="2.14677" ry="1.84009" transform="rotate(90 148.817 417.026)" fill="white" fill-opacity="0.86"/>
<ellipse cx="175.805" cy="466.095" rx="2.14677" ry="1.84009" transform="rotate(90 175.805 466.095)" fill="white" fill-opacity="0.86"/>
<circle cx="198.193" cy="357.53" r="2.14677" transform="rotate(90 198.193 357.53)" fill="white" fill-opacity="0.51"/>
<ellipse cx="103.735" cy="383.598" rx="1.84009" ry="2.14677" transform="rotate(90 103.735 383.598)" fill="white" fill-opacity="0.86"/>
<ellipse cx="79.8137" cy="305.701" rx="1.84009" ry="2.14677" transform="rotate(90 79.8137 305.701)" fill="white" fill-opacity="0.51"/>
<circle cx="152.804" cy="309.688" r="2.14677" transform="rotate(90 152.804 309.688)" fill="white" fill-opacity="0.51"/>
<circle cx="101.895" cy="481.429" r="2.14677" transform="rotate(90 101.895 481.429)" fill="white" fill-opacity="0.86"/>
<circle cx="202.18" cy="414.879" r="1.84009" transform="rotate(90 202.18 414.879)" fill="white" fill-opacity="0.51"/>
<ellipse cx="200.033" cy="292.82" rx="1.84009" ry="2.14677" transform="rotate(90 200.033 292.82)" fill="white" fill-opacity="0.86"/>
<ellipse cx="61.4129" cy="430.827" rx="1.84009" ry="2.14677" transform="rotate(90 61.4129 430.827)" fill="white" fill-opacity="0.51"/>
<ellipse cx="198.329" cy="146.898" rx="2.14677" ry="1.84009" transform="rotate(90 198.329 146.898)" fill="white" fill-opacity="0.86"/>
<ellipse cx="225.316" cy="195.967" rx="2.14677" ry="1.84009" transform="rotate(90 225.316 195.967)" fill="white" fill-opacity="0.86"/>
<circle cx="247.704" cy="87.402" r="2.14677" transform="rotate(90 247.704 87.402)" fill="white" fill-opacity="0.51"/>
<ellipse cx="129.325" cy="35.5729" rx="1.84009" ry="2.14677" transform="rotate(90 129.325 35.5729)" fill="white" fill-opacity="0.51"/>
<circle cx="202.315" cy="39.5597" r="2.14677" transform="rotate(90 202.315 39.5597)" fill="white" fill-opacity="0.51"/>
<circle cx="304.747" cy="8.89152" r="2.14677" transform="rotate(90 304.747 8.89152)" fill="white" fill-opacity="0.86"/>
<circle cx="290.026" cy="146.898" r="2.14677" transform="rotate(90 290.026 146.898)" fill="white" fill-opacity="0.51"/>
<circle cx="214.583" cy="432.725" r="2.14677" transform="rotate(90 214.583 432.725)" fill="white" fill-opacity="0.51"/>
<circle cx="332.962" cy="65.9343" r="2.14677" transform="rotate(90 332.962 65.9343)" fill="white" fill-opacity="0.86"/>
<circle cx="257.518" cy="351.761" r="2.14677" transform="rotate(90 257.518 351.761)" fill="white" fill-opacity="0.86"/>
<circle cx="251.691" cy="144.751" r="1.84009" transform="rotate(90 251.691 144.751)" fill="white" fill-opacity="0.51"/>
<ellipse cx="376.817" cy="318.026" rx="2.14677" ry="1.84009" transform="rotate(90 376.817 318.026)" fill="white" fill-opacity="0.86"/>
<ellipse cx="331.735" cy="284.598" rx="1.84009" ry="2.14677" transform="rotate(90 331.735 284.598)" fill="white" fill-opacity="0.86"/>
<ellipse cx="307.814" cy="206.701" rx="1.84009" ry="2.14677" transform="rotate(90 307.814 206.701)" fill="white" fill-opacity="0.51"/>
<circle cx="380.804" cy="210.688" r="2.14677" transform="rotate(90 380.804 210.688)" fill="white" fill-opacity="0.51"/>
<circle cx="329.895" cy="382.429" r="2.14677" transform="rotate(90 329.895 382.429)" fill="white" fill-opacity="0.86"/>
<ellipse cx="347.069" cy="496.822" rx="1.84009" ry="2.14677" transform="rotate(90 347.069 496.822)" fill="white" fill-opacity="0.86"/>
<ellipse cx="372.83" cy="436.099" rx="1.84009" ry="2.14677" transform="rotate(90 372.83 436.099)" fill="white" fill-opacity="0.86"/>
<ellipse cx="289.413" cy="331.827" rx="1.84009" ry="2.14677" transform="rotate(90 289.413 331.827)" fill="white" fill-opacity="0.51"/>
<defs>
<linearGradient id="paint0_linear_2001_3" x1="337" y1="20.5" x2="54" y2="517" gradientUnits="userSpaceOnUse">
<stop stop-color="#C1CAC7"/>
<stop offset="0.472732" stop-color="#6EB6A1"/>
<stop offset="1" stop-color="#4FCAA7"/>
</linearGradient>
</defs>
</svg>
