<?xml version="1.0" standalone="no"?>
<!DOCTYPE svg PUBLIC "-//W3C//DTD SVG 20010904//EN"
 "http://www.w3.org/TR/2001/REC-SVG-20010904/DTD/svg10.dtd">
<svg version="1.0" xmlns="http://www.w3.org/2000/svg"
 width="1532.000000pt" height="1004.000000pt" viewBox="0 0 1532.000000 1004.000000"
 preserveAspectRatio="xMidYMid meet">

<g transform="translate(0.000000,1004.000000) scale(0.100000,-0.100000)"
fill="#000000" stroke="none">
<path d="M10670 5820 c0 -154 -3 -280 -6 -280 -3 0 -24 16 -47 35 -116 99
-334 108 -507 20 -388 -196 -401 -812 -23 -1013 140 -74 354 -96 504 -52 249
74 379 230 409 491 5 46 10 308 10 582 l0 497 -170 0 -170 0 0 -280z m-137
-495 c85 -35 137 -128 137 -245 0 -172 -97 -268 -265 -263 -114 3 -190 45
-229 126 -82 167 -6 356 158 398 43 11 156 2 199 -16z"/>
<path d="M6595 5650 c-186 -26 -361 -142 -432 -285 -74 -149 -84 -349 -24
-498 38 -97 72 -146 148 -218 108 -103 219 -143 381 -137 90 3 116 8 162 30
30 14 67 38 82 52 15 14 32 26 38 26 7 0 10 -92 10 -280 l0 -280 168 2 167 3
0 555 c0 499 -2 561 -18 619 -40 147 -140 278 -259 341 -112 60 -288 89 -423
70z m242 -332 c47 -22 72 -52 103 -120 36 -79 19 -229 -33 -301 -48 -64 -173
-98 -274 -74 -135 31 -198 115 -198 262 1 65 6 89 25 129 29 57 89 103 157
122 61 17 163 9 220 -18z"/>
<path d="M7990 5654 c-171 -30 -275 -78 -368 -171 -101 -100 -155 -239 -155
-403 0 -280 160 -486 433 -557 86 -22 281 -22 424 1 171 28 156 9 156 187 l0
152 -42 -8 c-181 -30 -406 -35 -481 -9 -54 18 -137 88 -137 115 0 23 -5 23 55
0 28 -10 88 -24 135 -31 76 -11 95 -10 183 8 167 35 275 100 335 201 24 42 27
55 27 146 0 87 -3 106 -25 149 -46 91 -153 166 -287 201 -59 16 -208 27 -253
19z m216 -356 c34 -34 27 -70 -19 -95 -59 -33 -347 -15 -347 22 0 20 67 72
115 90 27 9 71 14 132 12 85 -2 95 -4 119 -29z"/>
<path d="M11700 5654 c-125 -19 -205 -47 -291 -105 -149 -100 -229 -264 -229
-469 0 -210 78 -367 230 -469 163 -108 371 -133 666 -80 l111 21 2 155 2 155
-33 -6 c-91 -17 -196 -25 -315 -26 -109 0 -142 4 -187 20 -55 21 -126 85 -126
115 0 18 -1 18 45 -1 60 -25 203 -46 259 -39 159 21 258 61 340 136 70 64 98
128 99 226 0 61 -4 81 -32 137 -56 115 -157 182 -325 217 -84 17 -155 22 -216
13z m215 -345 c45 -46 20 -99 -56 -119 -70 -19 -287 3 -304 31 -10 15 56 72
106 91 55 22 232 20 254 -3z"/>
<path d="M8718 5632 c-3 -9 -6 -79 -7 -155 l-2 -137 261 0 c164 0 260 -4 258
-10 -1 -5 -75 -74 -164 -152 -88 -79 -213 -190 -277 -248 l-117 -105 0 -151 0
-152 33 -3 c17 -2 251 -3 520 -1 l487 3 0 149 0 150 -305 0 c-168 0 -305 4
-305 9 0 8 349 323 497 449 l63 53 0 160 0 159 -469 0 c-438 0 -469 -1 -473
-18z"/>
</g>
</svg>
