<svg width="162" height="32" viewBox="0 0 162 32" fill="none" xmlns="http://www.w3.org/2000/svg">
<path d="M21.384 4.68H33.84C33.84 6.648 33.84 8.592 33.84 10.512C33.84 12.432 33.84 14.352 33.84 16.272C33.84 18.768 33.84 21.264 33.84 23.76C33.84 26.256 33.84 28.776 33.84 31.32C31.8 31.32 29.724 31.32 27.612 31.32C25.5 31.32 23.424 31.32 21.384 31.32C21.384 30.36 21.384 29.196 21.384 27.828C21.384 26.46 21.384 25.044 21.384 23.58C21.384 22.092 21.384 20.664 21.384 19.296C21.384 17.928 21.384 16.764 21.384 15.804C21.384 15.348 21.264 14.952 21.024 14.616C20.784 14.28 20.46 14.004 20.052 13.788C19.644 13.572 19.188 13.416 18.684 13.32C18.18 13.2 17.652 13.14 17.1 13.14C16.164 13.14 15.384 13.272 14.76 13.536C14.16 13.8 13.704 14.136 13.392 14.544C13.104 14.928 12.96 15.348 12.96 15.804C12.96 16.308 13.104 16.764 13.392 17.172C13.704 17.58 14.16 17.916 14.76 18.18C15.384 18.42 16.164 18.54 17.1 18.54C18.108 18.54 19.008 18.36 19.8 18C20.592 17.64 21.108 17.052 21.348 16.236L18.468 27C17.676 27.168 16.896 27.3 16.128 27.396C15.36 27.492 14.604 27.54 13.86 27.54C12.012 27.54 10.272 27.288 8.64 26.784C7.008 26.256 5.568 25.488 4.32 24.48C3.096 23.472 2.124 22.248 1.404 20.808C0.708 19.368 0.36 17.724 0.36 15.876C0.36 13.956 0.72 12.276 1.44 10.836C2.184 9.372 3.18 8.148 4.428 7.164C5.676 6.156 7.056 5.4 8.568 4.896C10.104 4.392 11.664 4.14 13.248 4.14C13.848 4.14 14.436 4.176 15.012 4.248C15.588 4.32 16.152 4.44 16.704 4.608C17.28 4.752 17.832 4.932 18.36 5.148C18.888 5.364 19.392 5.628 19.872 5.94C20.376 6.228 20.856 6.564 21.312 6.948C21.36 6.996 21.384 6.984 21.384 6.912C21.384 6.816 21.384 6.624 21.384 6.336C21.384 6.024 21.384 5.712 21.384 5.4C21.384 5.064 21.384 4.824 21.384 4.68ZM51.5506 18.864C52.8226 18.864 53.8066 18.636 54.5026 18.18C55.1986 17.724 55.5586 17.1 55.5826 16.308L66.7066 19.944C66.2746 21.456 65.3506 22.836 63.9346 24.084C62.5426 25.308 60.7786 26.28 58.6426 27C56.5066 27.72 54.1186 28.08 51.4786 28.08C49.2226 28.08 47.1106 27.828 45.1426 27.324C43.1986 26.82 41.4826 26.064 39.9946 25.056C38.5306 24.024 37.3786 22.74 36.5386 21.204C35.6986 19.668 35.2786 17.88 35.2786 15.84C35.2786 13.8 35.6986 12.012 36.5386 10.476C37.3786 8.94 38.5306 7.668 39.9946 6.66C41.4826 5.628 43.2106 4.86 45.1786 4.356C47.1466 3.852 49.2466 3.6 51.4786 3.6C53.7586 3.6 55.8466 3.852 57.7426 4.356C59.6626 4.86 61.3066 5.64 62.6746 6.696C64.0666 7.728 65.1346 9.048 65.8786 10.656C66.6466 12.24 67.0306 14.124 67.0306 16.308H47.4106C47.4106 16.308 47.3986 16.308 47.3746 16.308C47.3746 16.308 47.3746 16.32 47.3746 16.344C47.3746 16.704 47.4706 17.04 47.6626 17.352C47.8546 17.664 48.1186 17.94 48.4546 18.18C48.8146 18.396 49.2466 18.564 49.7506 18.684C50.2786 18.804 50.8786 18.864 51.5506 18.864ZM51.4786 12.708C50.3026 12.708 49.3306 12.924 48.5626 13.356C47.7946 13.764 47.4106 14.352 47.4106 15.12C47.4106 15.144 47.4106 15.168 47.4106 15.192C47.4346 15.192 47.4466 15.192 47.4466 15.192H55.4746C55.4986 15.192 55.5106 15.192 55.5106 15.192C55.5106 15.168 55.5106 15.144 55.5106 15.12C55.5106 14.736 55.4026 14.4 55.1866 14.112C54.9946 13.8 54.7186 13.548 54.3586 13.356C53.9986 13.14 53.5666 12.984 53.0626 12.888C52.5826 12.768 52.0546 12.708 51.4786 12.708ZM68.0335 12.744V4.68H94.1335C93.7015 5.376 93.1735 6.216 92.5495 7.2C91.9495 8.184 91.3015 9.228 90.6055 10.332C89.9095 11.436 89.2135 12.528 88.5175 13.608C87.8455 14.688 87.2215 15.684 86.6455 16.596C86.0695 17.484 85.6135 18.216 85.2775 18.792C85.2775 18.816 85.2655 18.84 85.2415 18.864C85.2655 18.864 85.2775 18.864 85.2775 18.864H93.5575V27H66.9895L76.4575 12.816C76.4575 12.792 76.4575 12.78 76.4575 12.78C76.4815 12.756 76.4935 12.744 76.4935 12.744C76.4935 12.744 76.4815 12.744 76.4575 12.744H68.0335ZM115.523 27C115.523 25.704 115.523 24.42 115.523 23.148C115.523 21.852 115.523 20.568 115.523 19.296C115.523 18 115.523 16.716 115.523 15.444C115.523 14.988 115.403 14.592 115.163 14.256C114.923 13.92 114.599 13.644 114.191 13.428C113.783 13.212 113.327 13.056 112.823 12.96C112.319 12.84 111.791 12.78 111.239 12.78C109.847 12.78 108.803 13.056 108.107 13.608C107.435 14.16 107.099 14.772 107.099 15.444C107.099 15.948 107.243 16.404 107.531 16.812C107.843 17.22 108.299 17.556 108.899 17.82C109.523 18.06 110.303 18.18 111.239 18.18C112.247 18.18 113.147 18 113.939 17.64C114.731 17.28 115.247 16.692 115.487 15.876L112.607 27C111.839 27.192 111.107 27.324 110.411 27.396C109.715 27.492 108.911 27.54 107.999 27.54C106.151 27.54 104.411 27.288 102.779 26.784C101.147 26.256 99.7066 25.488 98.4586 24.48C97.2346 23.472 96.2626 22.248 95.5426 20.808C94.8466 19.368 94.4986 17.724 94.4986 15.876C94.4986 14.292 94.7506 12.876 95.2546 11.628C95.7586 10.356 96.4426 9.252 97.3066 8.316C98.1946 7.38 99.2146 6.6 100.367 5.976C101.519 5.352 102.743 4.896 104.039 4.608C105.359 4.296 106.691 4.14 108.035 4.14C108.587 4.14 109.151 4.164 109.727 4.212C110.303 4.26 110.867 4.332 111.419 4.428C111.971 4.524 112.487 4.656 112.967 4.824C113.471 4.992 113.927 5.196 114.335 5.436C114.767 5.676 115.139 5.952 115.451 6.264C115.475 6.288 115.487 6.3 115.487 6.3C115.511 6.276 115.523 6.252 115.523 6.228C115.523 5.268 115.523 4.236 115.523 3.132C115.523 2.004 115.523 0.959998 115.523 -2.14577e-06H127.979C127.979 2.304 127.979 4.62 127.979 6.948C127.979 9.252 127.979 11.556 127.979 13.86C127.979 16.044 127.979 18.228 127.979 20.412C127.979 22.596 127.979 24.792 127.979 27H115.523ZM145.689 18.864C146.961 18.864 147.945 18.636 148.641 18.18C149.337 17.724 149.697 17.1 149.721 16.308L160.845 19.944C160.413 21.456 159.489 22.836 158.073 24.084C156.681 25.308 154.917 26.28 152.781 27C150.645 27.72 148.257 28.08 145.617 28.08C143.361 28.08 141.249 27.828 139.281 27.324C137.337 26.82 135.621 26.064 134.133 25.056C132.669 24.024 131.517 22.74 130.677 21.204C129.837 19.668 129.417 17.88 129.417 15.84C129.417 13.8 129.837 12.012 130.677 10.476C131.517 8.94 132.669 7.668 134.133 6.66C135.621 5.628 137.349 4.86 139.317 4.356C141.285 3.852 143.385 3.6 145.617 3.6C147.897 3.6 149.985 3.852 151.881 4.356C153.801 4.86 155.445 5.64 156.813 6.696C158.205 7.728 159.273 9.048 160.017 10.656C160.785 12.24 161.169 14.124 161.169 16.308H141.549C141.549 16.308 141.537 16.308 141.513 16.308C141.513 16.308 141.513 16.32 141.513 16.344C141.513 16.704 141.609 17.04 141.801 17.352C141.993 17.664 142.257 17.94 142.593 18.18C142.953 18.396 143.385 18.564 143.889 18.684C144.417 18.804 145.017 18.864 145.689 18.864ZM145.617 12.708C144.441 12.708 143.469 12.924 142.701 13.356C141.933 13.764 141.549 14.352 141.549 15.12C141.549 15.144 141.549 15.168 141.549 15.192C141.573 15.192 141.585 15.192 141.585 15.192H149.613C149.637 15.192 149.649 15.192 149.649 15.192C149.649 15.168 149.649 15.144 149.649 15.12C149.649 14.736 149.541 14.4 149.325 14.112C149.133 13.8 148.857 13.548 148.497 13.356C148.137 13.14 147.705 12.984 147.201 12.888C146.721 12.768 146.193 12.708 145.617 12.708Z" fill="#45693C"/>
</svg>
