<svg width="179" height="185" viewBox="0 0 179 185" fill="none" xmlns="http://www.w3.org/2000/svg">
<path fill-rule="evenodd" clip-rule="evenodd" d="M135.424 183.04L96.512 149.248C89.344 150.443 82.6027 151.04 76.288 151.04C50.8587 151.04 31.744 145.067 18.944 133.12C6.31467 121.003 0 101.632 0 75.008C0 48.896 6.99733 29.8667 20.992 17.92C34.9867 5.97333 53.504 0 76.544 0C125.013 0 149.248 24.1493 149.248 72.448C149.248 98.9013 142.592 118.869 129.28 132.352L157.696 152.064L135.424 183.04ZM75.264 120.832C80.0427 120.832 84.0533 120.064 87.296 118.528C90.5387 116.821 93.0987 113.92 94.976 109.824C98.56 102.827 100.352 91.392 100.352 75.52C100.352 59.9893 98.56 48.7253 94.976 41.728C91.392 34.56 84.8213 30.8053 75.264 30.464C71.68 30.464 67.9253 30.8907 64 31.744C60.2453 32.4267 57.856 33.4507 56.832 34.816C54.784 37.2053 53.1627 42.3253 51.968 50.176C50.944 57.856 50.432 66.304 50.432 75.52C50.432 89.856 51.7973 100.352 54.528 107.008C56.4053 111.957 59.0507 115.541 62.464 117.76C65.8773 119.808 70.144 120.832 75.264 120.832ZM76.352 83.848C73.152 83.8053 70.3147 83.208 67.84 82.056C67.84 80.136 67.7333 77.9813 67.52 75.592C67.3493 73.16 67.0293 70.8773 66.56 68.744L67.072 68.488C69.4187 68.9573 71.616 69.192 73.664 69.192C75.328 69.192 76.6507 69.0427 77.632 68.744C78.6133 68.4027 79.104 67.912 79.104 67.272C79.104 66.632 78.528 66.1627 77.376 65.864C76.2667 65.5653 74.7947 65.416 72.96 65.416C71.8933 65.416 70.336 65.5013 68.288 65.672L66.88 57.864C67.8613 56.9253 68.8213 56.3067 69.76 56.008C70.7413 55.6667 71.7867 55.496 72.896 55.496C75.4987 55.496 77.7173 56.0933 79.552 57.288C81.4293 58.4827 82.8373 60.04 83.776 61.96C84.7147 63.88 85.184 65.8853 85.184 67.976C85.184 71.2187 84.4373 73.7787 82.944 75.656C81.4933 77.4907 79.3813 78.6 76.608 78.984L76.672 83.528L76.352 83.848ZM72.448 97.096C70.9547 97.096 69.76 96.648 68.864 95.752C67.968 94.8133 67.52 93.5547 67.52 91.976C67.52 90.6107 67.968 89.4587 68.864 88.52C69.8027 87.5813 70.9547 87.112 72.32 87.112C73.728 87.112 74.9013 87.5813 75.84 88.52C76.8213 89.4587 77.312 90.6107 77.312 91.976C77.312 93.5547 76.8427 94.8133 75.904 95.752C75.008 96.648 73.856 97.096 72.448 97.096ZM168.32 184.712C173.843 184.712 178.32 180.235 178.32 174.712C178.32 169.189 173.843 164.712 168.32 164.712C162.797 164.712 158.32 169.189 158.32 174.712C158.32 180.235 162.797 184.712 168.32 184.712Z" fill="#1E1E1E"/>
</svg>
